<svg xmlns="http://www.w3.org/2000/svg" viewBox="0 0 256 256" fill="none">
  <rect width="256" height="256" rx="32" fill="#fdf6ec"/>
  <!-- Sun rays -->
  <g stroke="#d4a93a" stroke-width="3" stroke-linecap="round">
    <line x1="128" y1="42" x2="128" y2="56"/>
    <line x1="100" y1="48" x2="105" y2="62"/>
    <line x1="156" y1="48" x2="151" y2="62"/>
    <line x1="80" y1="62" x2="90" y2="74"/>
    <line x1="176" y1="62" x2="166" y2="74"/>
    <line x1="66" y1="84" x2="78" y2="92"/>
    <line x1="190" y1="84" x2="178" y2="92"/>
  </g>
  <!-- Sun arc -->
  <path d="M 92 96 A 36 36 0 0 1 164 96" stroke="#d4a93a" stroke-width="5" fill="none" stroke-linecap="round"/>
  <!-- Left laurel -->
  <g fill="#1e3a5f">
    <path d="M 60 130 Q 50 110 56 90 Q 64 102 64 118 Z"/>
    <path d="M 56 152 Q 44 138 46 118 Q 56 128 60 144 Z"/>
    <path d="M 56 174 Q 44 162 46 142 Q 56 152 60 168 Z"/>
    <path d="M 64 192 Q 54 180 56 162 Q 68 170 72 184 Z"/>
  </g>
  <!-- Right laurel (mirrored) -->
  <g fill="#1e3a5f">
    <path d="M 196 130 Q 206 110 200 90 Q 192 102 192 118 Z"/>
    <path d="M 200 152 Q 212 138 210 118 Q 200 128 196 144 Z"/>
    <path d="M 200 174 Q 212 162 210 142 Q 200 152 196 168 Z"/>
    <path d="M 192 192 Q 202 180 200 162 Q 188 170 184 184 Z"/>
  </g>
  <!-- Open book -->
  <path d="M 76 188 L 128 178 L 180 188 L 180 214 L 128 204 L 76 214 Z" fill="#ffffff" stroke="#1e3a5f" stroke-width="4" stroke-linejoin="round"/>
  <line x1="128" y1="178" x2="128" y2="204" stroke="#1e3a5f" stroke-width="2"/>
  <!-- Letter A -->
  <text x="128" y="170" font-family="Georgia, serif" font-size="92" font-weight="bold" text-anchor="middle" fill="#1e3a5f">A</text>
</svg>
